# Blender 3.3.1
# www.blender.org
mtllib couchS.mtl
o Cube.002
v -1.126824 0.261179 -0.042457
v -0.878242 0.261179 -0.291039
v -0.878242 0.012597 -0.042457
v -1.107902 0.261179 -0.137585
v -1.054016 0.261179 -0.218231
v -1.107902 0.166051 -0.042457
v -1.085065 0.163667 -0.139969
v -1.041375 0.168614 -0.205590
v -1.021761 0.117660 -0.185976
v -0.878242 0.166051 -0.272117
v -0.878242 0.085405 -0.218231
v -0.973370 0.261179 -0.272116
v -0.975754 0.163667 -0.249280
v -0.970807 0.098046 -0.205590
v -0.973370 0.031519 -0.042457
v -1.054016 0.085405 -0.042457
v -0.878242 0.031519 -0.137585
v -0.975754 0.054356 -0.139969
v -1.041375 0.098046 -0.135021
v -0.878242 0.261179 0.291039
v -1.126824 0.261179 0.042457
v -0.878242 0.012597 0.042457
v -0.973370 0.261179 0.272116
v -1.054016 0.261179 0.218231
v -0.878242 0.166051 0.272116
v -0.975754 0.163667 0.249279
v -1.041375 0.168614 0.205590
v -1.021761 0.117660 0.185976
v -1.107902 0.166051 0.042457
v -1.054016 0.085405 0.042457
v -1.107902 0.261179 0.137585
v -1.085065 0.163667 0.139969
v -1.041375 0.098046 0.135021
v -0.878242 0.031519 0.137585
v -0.878242 0.085405 0.218231
v -0.973370 0.031519 0.042457
v -0.975754 0.054356 0.139969
v -0.970807 0.098046 0.205590
v 0.877220 0.012597 -0.042457
v 0.877220 0.261179 -0.291039
v 1.125801 0.261179 -0.042457
v 0.877220 0.031519 -0.137585
v 0.877220 0.085405 -0.218231
v 0.972348 0.031519 -0.042457
v 0.974732 0.054356 -0.139969
v 0.969784 0.098046 -0.205590
v 1.020738 0.117660 -0.185976
v 0.972348 0.261179 -0.272117
v 1.052994 0.261179 -0.218231
v 0.877220 0.166051 -0.272117
v 0.974732 0.163667 -0.249280
v 1.040353 0.168614 -0.205590
v 1.106879 0.166051 -0.042457
v 1.052994 0.085405 -0.042457
v 1.106879 0.261179 -0.137585
v 1.084042 0.163667 -0.139969
v 1.040353 0.098046 -0.135021
v 0.877220 0.012597 0.042457
v 1.125801 0.261179 0.042457
v 0.877220 0.261179 0.291038
v 0.972348 0.031519 0.042457
v 1.052994 0.085405 0.042457
v 0.877220 0.031519 0.137585
v 0.974732 0.054356 0.139969
v 1.040353 0.098046 0.135021
v 1.020738 0.117660 0.185975
v 1.106879 0.261179 0.137585
v 1.052994 0.261179 0.218231
v 1.106879 0.166051 0.042457
v 1.084042 0.163667 0.139969
v 1.040353 0.168614 0.205590
v 0.877220 0.166051 0.272116
v 0.877220 0.085405 0.218231
v 0.972348 0.261179 0.272116
v 0.974732 0.163667 0.249279
v 0.969784 0.098046 0.205590
v -1.126824 1.242728 -0.042457
v -0.878242 1.491310 -0.042457
v -0.878242 1.242728 -0.291039
v -1.107902 1.337856 -0.042457
v -1.054016 1.418501 -0.042457
v -1.107902 1.242728 -0.137585
v -1.085065 1.340240 -0.139969
v -1.041375 1.405861 -0.135021
v -1.021761 1.386246 -0.185976
v -0.878242 1.472387 -0.137585
v -0.878242 1.418501 -0.218231
v -0.973370 1.472387 -0.042457
v -0.975754 1.449550 -0.139969
v -0.970807 1.405861 -0.205590
v -0.973370 1.242728 -0.272117
v -1.054016 1.242728 -0.218231
v -0.878242 1.337856 -0.272117
v -0.975754 1.340240 -0.249280
v -1.041375 1.335292 -0.205590
v -0.878242 1.491310 0.042457
v -1.126824 1.242728 0.042457
v -0.878242 1.242728 0.291039
v -0.973370 1.472387 0.042457
v -1.054016 1.418501 0.042457
v -0.878242 1.472387 0.137585
v -0.975754 1.449550 0.139969
v -1.041375 1.405861 0.135021
v -1.021761 1.386246 0.185976
v -1.107902 1.242728 0.137585
v -1.054016 1.242728 0.218231
v -1.107902 1.337856 0.042457
v -1.085065 1.340240 0.139969
v -1.041375 1.335292 0.205590
v -0.878242 1.337856 0.272116
v -0.878242 1.418501 0.218231
v -0.973370 1.242728 0.272116
v -0.975754 1.340240 0.249279
v -0.970807 1.405861 0.205590
v 0.877220 1.491310 -0.042457
v 1.125801 1.242728 -0.042457
v 0.877220 1.242728 -0.291039
v 0.972348 1.472387 -0.042457
v 1.052994 1.418501 -0.042457
v 0.877220 1.472387 -0.137585
v 0.974732 1.449550 -0.139969
v 1.040353 1.405861 -0.135021
v 1.020738 1.386246 -0.185976
v 1.106879 1.242728 -0.137585
v 1.052994 1.242728 -0.218231
v 1.106879 1.337856 -0.042457
v 1.084042 1.340240 -0.139969
v 1.040353 1.335292 -0.205590
v 0.877220 1.337856 -0.272117
v 0.877220 1.418501 -0.218231
v 0.972348 1.242728 -0.272117
v 0.974732 1.340240 -0.249280
v 0.969784 1.405861 -0.205590
v 0.877220 1.242728 0.291038
v 1.125801 1.242728 0.042457
v 0.877220 1.491310 0.042457
v 0.972348 1.242728 0.272116
v 1.052994 1.242728 0.218231
v 0.877220 1.337856 0.272116
v 0.974732 1.340240 0.249279
v 1.040353 1.335292 0.205590
v 1.020738 1.386246 0.185975
v 1.106879 1.337856 0.042457
v 1.052994 1.418501 0.042457
v 1.106879 1.242728 0.137585
v 1.084042 1.340240 0.139969
v 1.040353 1.405861 0.135021
v 0.877220 1.472387 0.137585
v 0.877220 1.418501 0.218231
v 0.972348 1.472387 0.042457
v 0.974732 1.449550 0.139969
v 0.969784 1.405861 0.205590
vn -0.1004 0.1004 0.9899
vn -0.1004 -0.1004 0.9899
vn 0.1004 -0.1004 0.9899
vn 0.1004 0.1004 0.9899
vn 0.1004 0.9899 0.1004
vn 0.1004 0.9899 -0.1004
vn -0.1004 0.9899 -0.1004
vn -0.1004 0.9899 0.1004
vn 0.9899 -0.1004 0.1004
vn 0.9899 -0.1004 -0.1004
vn 0.9899 0.1004 -0.1004
vn 0.9899 0.1004 0.1004
vn -0.1004 -0.1004 -0.9899
vn -0.1004 0.1004 -0.9899
vn 0.1004 0.1004 -0.9899
vn 0.1004 -0.1004 -0.9899
vn -0.1004 -0.9899 0.1004
vn -0.1004 -0.9899 -0.1004
vn 0.1004 -0.9899 -0.1004
vn 0.1004 -0.9899 0.1004
vn -0.9899 -0.1004 -0.1004
vn -0.9201 -0.0981 -0.3792
vn -0.8545 -0.3673 -0.3673
vn -0.9201 -0.3792 -0.0981
vn -0.7041 -0.0919 -0.7041
vn -0.6663 -0.3347 -0.6663
vn -0.6663 -0.6663 -0.3347
vn -0.7041 -0.7041 -0.0919
vn -0.5774 -0.5774 -0.5774
vn -0.0981 -0.3792 -0.9201
vn -0.3673 -0.3673 -0.8545
vn -0.3792 -0.0981 -0.9201
vn -0.0919 -0.7041 -0.7041
vn -0.3347 -0.6663 -0.6663
vn -0.3792 -0.9201 -0.0981
vn -0.3673 -0.8545 -0.3673
vn -0.0981 -0.9201 -0.3792
vn -0.3792 -0.0981 0.9201
vn -0.3673 -0.3673 0.8545
vn -0.0981 -0.3792 0.9201
vn -0.7041 -0.0919 0.7041
vn -0.6663 -0.3347 0.6663
vn -0.3347 -0.6663 0.6663
vn -0.0919 -0.7041 0.7041
vn -0.5774 -0.5773 0.5774
vn -0.9899 -0.1004 0.1004
vn -0.9201 -0.3792 0.0981
vn -0.8545 -0.3673 0.3673
vn -0.9201 -0.0981 0.3792
vn -0.7041 -0.7041 0.0919
vn -0.6663 -0.6663 0.3347
vn -0.0981 -0.9201 0.3792
vn -0.3673 -0.8545 0.3673
vn -0.3792 -0.9201 0.0981
vn 0.0981 -0.9201 -0.3792
vn 0.3673 -0.8545 -0.3673
vn 0.3792 -0.9201 -0.0981
vn 0.0919 -0.7041 -0.7041
vn 0.3347 -0.6663 -0.6663
vn 0.6663 -0.6663 -0.3347
vn 0.7041 -0.7041 -0.0919
vn 0.5773 -0.5774 -0.5774
vn 0.3792 -0.0981 -0.9201
vn 0.3673 -0.3673 -0.8545
vn 0.0981 -0.3792 -0.9201
vn 0.7041 -0.0919 -0.7041
vn 0.6663 -0.3347 -0.6663
vn 0.9201 -0.3792 -0.0981
vn 0.8545 -0.3673 -0.3673
vn 0.9201 -0.0981 -0.3792
vn 0.3792 -0.9201 0.0981
vn 0.3673 -0.8545 0.3673
vn 0.0981 -0.9201 0.3792
vn 0.7041 -0.7041 0.0919
vn 0.6663 -0.6663 0.3347
vn 0.3347 -0.6663 0.6663
vn 0.0919 -0.7041 0.7041
vn 0.5774 -0.5773 0.5774
vn 0.9201 -0.0981 0.3792
vn 0.8545 -0.3673 0.3673
vn 0.9201 -0.3792 0.0981
vn 0.7041 -0.0919 0.7041
vn 0.6663 -0.3347 0.6663
vn 0.0981 -0.3792 0.9201
vn 0.3673 -0.3673 0.8545
vn 0.3792 -0.0981 0.9201
vn -0.9899 0.1004 -0.1004
vn -0.9201 0.3792 -0.0981
vn -0.8545 0.3673 -0.3673
vn -0.9201 0.0981 -0.3792
vn -0.7041 0.7041 -0.0919
vn -0.6663 0.6663 -0.3347
vn -0.6663 0.3347 -0.6663
vn -0.7041 0.0919 -0.7041
vn -0.5774 0.5774 -0.5773
vn -0.0981 0.9201 -0.3792
vn -0.3673 0.8545 -0.3673
vn -0.3792 0.9201 -0.0981
vn -0.0919 0.7041 -0.7041
vn -0.3347 0.6663 -0.6663
vn -0.3792 0.0981 -0.9201
vn -0.3673 0.3673 -0.8545
vn -0.0981 0.3792 -0.9201
vn -0.3792 0.9201 0.0981
vn -0.3673 0.8545 0.3673
vn -0.0981 0.9201 0.3792
vn -0.7041 0.7041 0.0919
vn -0.6663 0.6663 0.3347
vn -0.3347 0.6663 0.6663
vn -0.0919 0.7041 0.7041
vn -0.5774 0.5774 0.5773
vn -0.9899 0.1004 0.1004
vn -0.9201 0.0981 0.3792
vn -0.8545 0.3673 0.3673
vn -0.9201 0.3792 0.0981
vn -0.7041 0.0919 0.7041
vn -0.6663 0.3347 0.6663
vn -0.0981 0.3792 0.9201
vn -0.3673 0.3673 0.8545
vn -0.3792 0.0981 0.9201
vn 0.3792 0.9201 -0.0981
vn 0.3673 0.8545 -0.3673
vn 0.0981 0.9201 -0.3792
vn 0.7041 0.7041 -0.0919
vn 0.6663 0.6663 -0.3347
vn 0.3347 0.6663 -0.6663
vn 0.0919 0.7041 -0.7041
vn 0.5774 0.5774 -0.5774
vn 0.9201 0.0981 -0.3792
vn 0.8545 0.3673 -0.3673
vn 0.9201 0.3792 -0.0981
vn 0.7041 0.0919 -0.7041
vn 0.6663 0.3347 -0.6663
vn 0.0981 0.3792 -0.9201
vn 0.3673 0.3673 -0.8545
vn 0.3792 0.0981 -0.9201
vn 0.3792 0.0981 0.9201
vn 0.3673 0.3673 0.8545
vn 0.0981 0.3792 0.9201
vn 0.7041 0.0919 0.7041
vn 0.6663 0.3347 0.6663
vn 0.3347 0.6663 0.6663
vn 0.0919 0.7041 0.7041
vn 0.5774 0.5774 0.5773
vn 0.9201 0.3792 0.0981
vn 0.8545 0.3673 0.3673
vn 0.9201 0.0981 0.3792
vn 0.7041 0.7041 0.0919
vn 0.6663 0.6663 0.3347
vn 0.0981 0.9201 0.3792
vn 0.3673 0.8545 0.3673
vn 0.3792 0.9201 0.0981
vt 0.074050 0.918186
vt 0.050240 0.050240
vt 0.925950 0.542477
vt 0.100724 0.918186
vt 0.050240 0.000953
vt 0.123338 0.918186
vt 0.074050 0.944860
vt 0.101393 0.945529
vt 0.119793 0.944141
vt 0.024285 0.004497
vt 0.114293 0.958429
vt 0.009997 0.009997
vt 0.885707 0.582720
vt 0.023566 0.050240
vt 0.000953 0.050240
vt 0.876662 0.542477
vt 0.050240 0.023566
vt 0.022898 0.022897
vt 0.004497 0.024285
vt 0.880207 0.568432
vt 0.925950 0.569151
vt 0.925950 0.591764
vt 0.074050 0.967474
vt 0.899276 0.542477
vt 0.898607 0.569819
vt 0.100006 0.963929
vt 0.899994 0.588220
vt 0.425950 0.542477
vt 0.050240 0.918186
vt 0.949760 0.542477
vt 0.425950 0.569151
vt 0.425950 0.591764
vt 0.000953 0.918186
vt 0.399276 0.542477
vt 0.398607 0.569819
vt 0.399994 0.588220
vt 0.004497 0.944141
vt 0.385707 0.582720
vt 0.009997 0.958429
vt 0.990003 0.582720
vt 0.050240 0.944860
vt 0.949760 0.591764
vt 0.050240 0.967474
vt 0.023566 0.918186
vt 0.022898 0.945529
vt 0.024285 0.963929
vt 0.975715 0.588220
vt 0.976434 0.542477
vt 0.376662 0.542477
vt 0.999047 0.542477
vt 0.949760 0.569151
vt 0.977103 0.569819
vt 0.380207 0.568432
vt 0.995503 0.568432
vt 0.925950 0.050240
vt 0.050240 0.542477
vt 0.174531 0.918186
vt 0.899276 0.050240
vt 0.000953 0.542477
vt 0.876662 0.050240
vt 0.925950 0.023566
vt 0.898607 0.022898
vt 0.880207 0.024285
vt 0.004497 0.568432
vt 0.885707 0.009997
vt 0.009997 0.582720
vt 0.134288 0.958429
vt 0.050240 0.569151
vt 0.050240 0.591764
vt 0.125243 0.918186
vt 0.023566 0.542477
vt 0.022898 0.569819
vt 0.024285 0.588220
vt 0.128788 0.944141
vt 0.174531 0.944860
vt 0.174531 0.967474
vt 0.925950 0.000953
vt 0.147857 0.918186
vt 0.147188 0.945529
vt 0.899994 0.004497
vt 0.148575 0.963929
vt 0.949760 0.050240
vt 0.198341 0.918186
vt 0.425950 0.050240
vt 0.949760 0.023566
vt 0.198341 0.967474
vt 0.949760 0.000953
vt 0.976434 0.050240
vt 0.977103 0.022898
vt 0.975715 0.004497
vt 0.224296 0.963929
vt 0.990003 0.009997
vt 0.238584 0.958429
vt 0.385707 0.009997
vt 0.225015 0.918186
vt 0.425950 0.000953
vt 0.247628 0.918186
vt 0.198341 0.944860
vt 0.225683 0.945529
vt 0.244084 0.944141
vt 0.399994 0.004497
vt 0.399276 0.050240
vt 0.376662 0.050240
vt 0.999047 0.050240
vt 0.425950 0.023566
vt 0.398607 0.022897
vt 0.995503 0.024285
vt 0.380207 0.024285
vt 0.074050 0.642957
vt 0.801659 0.050240
vt 0.325469 0.050240
vt 0.074050 0.616283
vt 0.074050 0.593670
vt 0.801659 0.000953
vt 0.100724 0.642957
vt 0.101393 0.615614
vt 0.100006 0.597214
vt 0.775704 0.004497
vt 0.114293 0.602714
vt 0.761416 0.009997
vt 0.365712 0.009997
vt 0.774985 0.050240
vt 0.374757 0.050240
vt 0.752372 0.050240
vt 0.801659 0.023566
vt 0.774317 0.022898
vt 0.755916 0.024285
vt 0.371212 0.024285
vt 0.325469 0.023566
vt 0.325469 0.000953
vt 0.123338 0.642957
vt 0.352144 0.050240
vt 0.352812 0.022898
vt 0.119793 0.617002
vt 0.351425 0.004497
vt 0.825469 0.050240
vt 0.050240 0.642957
vt 0.701179 0.542477
vt 0.825469 0.023566
vt 0.050240 0.593670
vt 0.825469 0.000953
vt 0.852144 0.050240
vt 0.852812 0.022898
vt 0.851425 0.004497
vt 0.024285 0.597214
vt 0.865712 0.009997
vt 0.009997 0.602714
vt 0.741422 0.582720
vt 0.023566 0.642957
vt 0.701179 0.591764
vt 0.000953 0.642957
vt 0.050240 0.616283
vt 0.022898 0.615614
vt 0.004497 0.617002
vt 0.727134 0.588220
vt 0.727853 0.542477
vt 0.750466 0.542477
vt 0.874757 0.050240
vt 0.701179 0.569151
vt 0.728521 0.569819
vt 0.871212 0.024285
vt 0.746922 0.568432
vt 0.801659 0.542477
vt 0.174531 0.642957
vt 0.325469 0.542477
vt 0.801659 0.569151
vt 0.174531 0.593670
vt 0.801659 0.591764
vt 0.774985 0.542477
vt 0.774317 0.569819
vt 0.775704 0.588220
vt 0.148575 0.597214
vt 0.761416 0.582720
vt 0.134288 0.602714
vt 0.365712 0.582720
vt 0.147857 0.642957
vt 0.325469 0.591764
vt 0.125243 0.642957
vt 0.174531 0.616283
vt 0.147188 0.615614
vt 0.128788 0.617002
vt 0.351425 0.588220
vt 0.352144 0.542477
vt 0.374757 0.542477
vt 0.752372 0.542477
vt 0.325469 0.569151
vt 0.352812 0.569819
vt 0.755916 0.568432
vt 0.371212 0.568432
vt 0.701179 0.050240
vt 0.198341 0.642957
vt 0.825469 0.542477
vt 0.701179 0.023566
vt 0.701179 0.000953
vt 0.247628 0.642957
vt 0.727853 0.050240
vt 0.728522 0.022898
vt 0.727134 0.004497
vt 0.244084 0.617002
vt 0.741422 0.009997
vt 0.238584 0.602714
vt 0.865712 0.582720
vt 0.198341 0.616283
vt 0.198341 0.593670
vt 0.825469 0.591764
vt 0.225015 0.642957
vt 0.225683 0.615614
vt 0.224296 0.597214
vt 0.851425 0.588220
vt 0.852144 0.542477
vt 0.750466 0.050240
vt 0.874757 0.542477
vt 0.825469 0.569151
vt 0.852812 0.569819
vt 0.746922 0.024285
vt 0.871212 0.568432
s 1
usemtl Material
f 98/138/1 20/28/2 60/84/3 134/190/4
f 136/192/5 115/163/6 78/110/7 96/136/8
f 59/83/9 41/57/10 116/164/11 135/191/12
f 2/2/13 79/111/14 117/165/15 40/56/16
f 22/30/17 3/3/18 39/55/19 58/82/20
f 1/1/21 4/4/22 7/8/23 6/7/24
f 4/4/22 5/6/25 8/9/26 7/8/23
f 6/7/24 7/8/23 19/26/27 16/23/28
f 7/8/23 8/9/26 9/11/29 19/26/27
f 2/2/13 10/14/30 13/18/31 12/17/32
f 10/14/30 11/15/33 14/19/34 13/18/31
f 12/17/32 13/18/31 8/10/26 5/5/25
f 13/18/31 14/19/34 9/12/29 8/10/26
f 3/3/18 15/21/35 18/25/36 17/24/37
f 15/21/35 16/22/28 19/27/27 18/25/36
f 17/24/37 18/25/36 14/20/34 11/16/33
f 18/25/36 19/27/27 9/13/29 14/20/34
f 20/28/2 23/31/38 26/35/39 25/34/40
f 23/31/38 24/32/41 27/36/42 26/35/39
f 25/34/40 26/35/39 38/53/43 35/49/44
f 26/35/39 27/36/42 28/38/45 38/53/43
f 21/29/46 29/41/47 32/45/48 31/44/49
f 29/41/47 30/43/50 33/46/51 32/45/48
f 31/44/49 32/45/48 27/37/42 24/33/41
f 32/45/48 33/46/51 28/39/45 27/37/42
f 22/30/17 34/48/52 37/52/53 36/51/54
f 34/48/52 35/50/44 38/54/43 37/52/53
f 36/51/54 37/52/53 33/47/51 30/42/50
f 37/52/53 38/54/43 28/40/45 33/47/51
f 39/55/19 42/58/55 45/62/56 44/61/57
f 42/58/55 43/60/58 46/63/59 45/62/56
f 44/61/57 45/62/56 57/80/60 54/77/61
f 45/62/56 46/63/59 47/65/62 57/80/60
f 40/56/16 48/68/63 51/72/64 50/71/65
f 48/68/63 49/69/66 52/73/67 51/72/64
f 50/71/65 51/72/64 46/64/59 43/59/58
f 51/72/64 52/73/67 47/66/62 46/64/59
f 41/57/10 53/75/68 56/79/69 55/78/70
f 53/75/68 54/76/61 57/81/60 56/79/69
f 55/78/70 56/79/69 52/74/67 49/70/66
f 56/79/69 57/81/60 47/67/62 52/74/67
f 58/82/20 61/85/71 64/89/72 63/88/73
f 61/85/71 62/87/74 65/90/75 64/89/72
f 63/88/73 64/89/72 76/107/76 73/104/77
f 64/89/72 65/90/75 66/92/78 76/107/76
f 59/83/9 67/95/79 70/99/80 69/98/81
f 67/95/79 68/97/82 71/100/83 70/99/80
f 69/98/81 70/99/80 65/91/75 62/86/74
f 70/99/80 71/100/83 66/93/78 65/91/75
f 60/84/3 72/102/84 75/106/85 74/105/86
f 72/102/84 73/103/77 76/108/76 75/106/85
f 74/105/86 75/106/85 71/101/83 68/96/82
f 75/106/85 76/108/76 66/94/78 71/101/83
f 77/109/87 80/112/88 83/116/89 82/115/90
f 80/112/88 81/113/91 84/117/92 83/116/89
f 82/115/90 83/116/89 95/134/93 92/131/94
f 83/116/89 84/117/92 85/119/95 95/134/93
f 78/110/7 86/122/96 89/126/97 88/125/98
f 86/122/96 87/124/99 90/127/100 89/126/97
f 88/125/98 89/126/97 84/118/92 81/114/91
f 89/126/97 90/127/100 85/120/95 84/118/92
f 79/111/14 91/129/101 94/133/102 93/132/103
f 91/129/101 92/130/94 95/135/93 94/133/102
f 93/132/103 94/133/102 90/128/100 87/123/99
f 94/133/102 95/135/93 85/121/95 90/128/100
f 96/136/8 99/139/104 102/143/105 101/142/106
f 99/139/104 100/141/107 103/144/108 102/143/105
f 101/142/106 102/143/105 114/161/109 111/158/110
f 102/143/105 103/144/108 104/146/111 114/161/109
f 97/137/112 105/149/113 108/153/114 107/152/115
f 105/149/113 106/151/116 109/154/117 108/153/114
f 107/152/115 108/153/114 103/145/108 100/140/107
f 108/153/114 109/154/117 104/147/111 103/145/108
f 98/138/1 110/156/118 113/160/119 112/159/120
f 110/156/118 111/157/110 114/162/109 113/160/119
f 112/159/120 113/160/119 109/155/117 106/150/116
f 113/160/119 114/162/109 104/148/111 109/155/117
f 115/163/6 118/166/121 121/170/122 120/169/123
f 118/166/121 119/168/124 122/171/125 121/170/122
f 120/169/123 121/170/122 133/188/126 130/185/127
f 121/170/122 122/171/125 123/173/128 133/188/126
f 116/164/11 124/176/129 127/180/130 126/179/131
f 124/176/129 125/178/132 128/181/133 127/180/130
f 126/179/131 127/180/130 122/172/125 119/167/124
f 127/180/130 128/181/133 123/174/128 122/172/125
f 117/165/15 129/183/134 132/187/135 131/186/136
f 129/183/134 130/184/127 133/189/126 132/187/135
f 131/186/136 132/187/135 128/182/133 125/177/132
f 132/187/135 133/189/126 123/175/128 128/182/133
f 134/190/4 137/193/137 140/197/138 139/196/139
f 137/193/137 138/194/140 141/198/141 140/197/138
f 139/196/139 140/197/138 152/215/142 149/211/143
f 140/197/138 141/198/141 142/200/144 152/215/142
f 135/191/12 143/203/145 146/207/146 145/206/147
f 143/203/145 144/204/148 147/208/149 146/207/146
f 145/206/147 146/207/146 141/199/141 138/195/140
f 146/207/146 147/208/149 142/201/144 141/199/141
f 136/192/5 148/210/150 151/214/151 150/213/152
f 148/210/150 149/212/143 152/216/142 151/214/151
f 150/213/152 151/214/151 147/209/149 144/205/148
f 151/214/151 152/216/142 142/202/144 147/209/149
f 98/138/1 134/190/4 139/196/139 110/156/118
f 110/156/118 139/196/139 149/211/143 111/157/110
f 111/158/110 149/212/143 148/210/150 101/142/106
f 101/142/106 148/210/150 136/192/5 96/136/8
f 20/28/2 98/138/1 112/159/120 23/31/38
f 23/31/38 112/159/120 106/150/116 24/32/41
f 24/33/41 106/151/116 105/149/113 31/44/49
f 31/44/49 105/149/113 97/137/112 21/29/46
f 3/3/18 22/30/17 36/51/54 15/21/35
f 15/21/35 36/51/54 30/42/50 16/22/28
f 16/23/28 30/43/50 29/41/47 6/7/24
f 6/7/24 29/41/47 21/29/46 1/1/21
f 135/191/12 116/164/11 126/179/131 143/203/145
f 143/203/145 126/179/131 119/167/124 144/204/148
f 144/205/148 119/168/124 118/166/121 150/213/152
f 150/213/152 118/166/121 115/163/6 136/192/5
f 41/57/10 59/83/9 69/98/81 53/75/68
f 53/75/68 69/98/81 62/86/74 54/76/61
f 54/77/61 62/87/74 61/85/71 44/61/57
f 44/61/57 61/85/71 58/82/20 39/55/19
f 77/109/87 97/137/112 107/152/115 80/112/88
f 80/112/88 107/152/115 100/140/107 81/113/91
f 81/114/91 100/141/107 99/139/104 88/125/98
f 88/125/98 99/139/104 96/136/8 78/110/7
f 40/56/16 117/165/15 131/186/136 48/68/63
f 48/68/63 131/186/136 125/177/132 49/69/66
f 49/70/66 125/178/132 124/176/129 55/78/70
f 55/78/70 124/176/129 116/164/11 41/57/10
f 2/2/13 40/56/16 50/71/65 10/14/30
f 10/14/30 50/71/65 43/59/58 11/15/33
f 11/16/33 43/60/58 42/58/55 17/24/37
f 17/24/37 42/58/55 39/55/19 3/3/18
f 134/190/4 60/84/3 74/105/86 137/193/137
f 137/193/137 74/105/86 68/96/82 138/194/140
f 138/195/140 68/97/82 67/95/79 145/206/147
f 145/206/147 67/95/79 59/83/9 135/191/12
f 117/165/15 79/111/14 93/132/103 129/183/134
f 129/183/134 93/132/103 87/123/99 130/184/127
f 130/185/127 87/124/99 86/122/96 120/169/123
f 120/169/123 86/122/96 78/110/7 115/163/6
f 79/111/14 2/2/13 12/17/32 91/129/101
f 91/129/101 12/17/32 5/5/25 92/130/94
f 92/131/94 5/6/25 4/4/22 82/115/90
f 82/115/90 4/4/22 1/1/21 77/109/87
f 60/84/3 20/28/2 25/34/40 72/102/84
f 72/102/84 25/34/40 35/49/44 73/103/77
f 73/104/77 35/50/44 34/48/52 63/88/73
f 63/88/73 34/48/52 22/30/17 58/82/20
f 97/137/112 77/109/87 1/1/21 21/29/46
